<?xml version="1.0" encoding="utf-8"?>
<!-- Generator: Adobe Illustrator 26.5.0, SVG Export Plug-In . SVG Version: 6.00 Build 0)  -->
<svg version="1.1" id="Layer_1" xmlns="http://www.w3.org/2000/svg" xmlns:xlink="http://www.w3.org/1999/xlink" x="0px" y="0px"
	 viewBox="0 0 512 517" style="enable-background:new 0 0 512 517;" xml:space="preserve">
<g id="Layer_1_00000035530175300509409280000003289597384453498025_">
</g>
<g id="_x3C_Layer_x3E__1_">
	<g>
		<path d="M230.4,227.9l-43.5,12.7l-29.6,154.3c-0.4,1.8-2,3.1-3.8,3.1c-0.2,0-0.5,0-0.7-0.1c-2.1-0.4-3.5-2.4-3.1-4.5l28.9-150.4
			l-11.9,3.5c-0.4,0.1-0.7,0.2-1.1,0.2c-1.7,0-3.2-1.1-3.7-2.8c-0.6-2,0.6-4.2,2.6-4.8l15.7-4.6l8.4-43.9l-28.4,8.3
			c-0.4,0.1-0.7,0.2-1.1,0.2c-1.7,0-3.2-1.1-3.7-2.8c-0.6-2,0.6-4.2,2.6-4.8L273,157.9c2-0.6,4.2,0.6,4.8,2.6c0.6,2-0.6,4.2-2.6,4.8
			L197,188.1l-8.4,43.9l39.7-11.6c2-0.6,4.2,0.6,4.8,2.6C233.6,225.1,232.5,227.3,230.4,227.9z M422.6,182.7L345,205.2l-24.3,126.6
			c-0.4,1.8-2,3.1-3.8,3.1c-0.2,0-0.5,0-0.7-0.1c-2.1-0.4-3.5-2.4-3.1-4.5l13.4-69.8c-7.3,8.6-9.8,10.5-12,10.5
			c-0.4,0-0.8-0.1-1.2-0.2c-1.8-0.4-3.1-2-3.2-3.9c-0.2-2.8,1.3-7.2,3.5-13.6c0.4-1.2,0.8-2.4,1.2-3.4c-3.3,4.5-7.3,10.5-11.3,16.9
			c0,0,0,0,0,0c0,0,0,0,0,0c0,0,0,0-0.1,0.1c-0.1,0.2-0.2,0.3-0.4,0.5c-0.1,0.1-0.1,0.1-0.2,0.2c-0.1,0.1-0.2,0.2-0.3,0.3
			c-0.1,0.1-0.2,0.1-0.2,0.2c-0.1,0.1-0.2,0.1-0.4,0.2c-0.1,0-0.2,0.1-0.2,0.1c-0.1,0.1-0.3,0.1-0.4,0.1c-0.1,0-0.2,0-0.2,0.1
			c-0.2,0-0.3,0-0.5,0.1c-0.1,0-0.2,0-0.2,0c0,0-0.1,0-0.1,0c-0.1,0-0.2,0-0.3,0c-0.1,0-0.2,0-0.3,0c0,0,0,0-0.1,0
			c-0.2,0-0.4-0.1-0.6-0.2c0,0-0.1,0-0.1,0c-0.2-0.1-0.4-0.2-0.6-0.3c0,0,0,0,0,0c0,0,0,0,0,0c-0.2-0.1-0.4-0.3-0.6-0.4
			c0,0,0,0-0.1,0c-0.2-0.2-0.3-0.3-0.4-0.5c0,0,0,0-0.1-0.1c-0.1-0.2-0.2-0.4-0.3-0.6c0,0,0,0,0-0.1c-0.1-0.2-0.2-0.4-0.2-0.6
			c0,0,0,0,0,0c0-0.2-0.1-0.4-0.1-0.7c0,0,0,0,0-0.1c0-0.2,0-0.4,0-0.7c0,0,0-0.1,0-0.1c0,0,0-0.1,0-0.1l0.2-1.1l-2.4,3.9
			l-10.7,17.4c-0.6,3.2-1.3,6.3-2,9.5c-1.6,7.6-3.3,15.3-5.3,22.8l-0.7,2.9l-0.8,2.8l-0.2,0.7l-0.2,0.8c-0.2,0.5-0.3,1.1-0.5,1.6
			c-0.4,1-0.8,2.1-1.4,3.1c-0.6,1-1.2,2.1-2.1,3.1c-0.5,0.5-1,1-1.6,1.5c-0.7,0.5-1.4,1-2.5,1.3c-1.1,0.3-2.5,0.3-3.8-0.3
			c-1.2-0.5-2.1-1.4-2.6-2.2c-0.6-0.8-0.9-1.5-1.1-2.2s-0.4-1.3-0.5-2c-0.4-2.5-0.4-4.7-0.2-6.8c0.2-2.1,0.5-4.2,1-6.3
			c1-4.1,2.6-8,4.4-11.7c1.8-3.7,3.9-7.1,6.1-10.4l6.3-9.8l0.8-1.3c0.7-3.5,1.3-6.9,1.9-10.4c-2.7,4.1-5.9,7.2-9.9,7.2
			c-0.2,0-0.4,0-0.6,0c-1.2-0.1-5.1-0.9-5.5-7.1c0-0.1,0-0.3,0-0.5l-0.6,0.7l-1,1.1c-0.4,0.5-0.9,1-1.6,1.5
			c-0.6,0.5-1.4,1.1-2.6,1.4c-0.6,0.2-1.4,0.3-2.3,0.2c-0.9-0.1-1.9-0.5-2.6-1.1c-0.7-0.6-1.1-1.3-1.4-1.9c0,0,0,0,0-0.1
			c-0.3,0.4-0.6,0.8-0.8,1.2c-1.7,2.3-3.4,4.6-5.3,6.9c-0.5,0.6-1,1.2-1.5,1.7c-0.6,0.6-1.1,1.2-1.9,1.8c-0.4,0.3-0.9,0.7-1.7,1
			l-0.3,0.1l-0.2,0.1c-0.1,0-0.3,0.1-0.5,0.1c-0.3,0.1-0.7,0.1-1.1,0.2c-0.4,0-0.9,0-1.5-0.1c-0.5-0.1-1.1-0.3-1.7-0.6
			c-1.1-0.7-1.8-1.6-2.1-2.3c-0.4-0.7-0.5-1.4-0.7-1.9c-0.1-0.6-0.2-1-0.2-1.5c-0.1-0.9-0.1-1.7,0-2.5c0.1-1.6,0.2-3,0.4-4.5
			c0.4-2.9,0.9-5.7,1.4-8.4c1-5.6,2.1-11,3.1-16.5l6.4-32.9l6.5-32.9c0.4-2.1,2.4-3.4,4.4-3c2,0.4,3.4,2.4,3,4.4l-6.2,32.9
			l-6.3,32.9c-1.1,5.5-2.2,11-3.2,16.4c-0.5,2.7-1,5.4-1.3,8.1c-0.2,1.2-0.3,2.3-0.4,3.4c0.2-0.2,0.4-0.4,0.5-0.6
			c1.7-2,3.3-4.2,4.9-6.4c1.6-2.2,3.1-4.5,4.6-6.9c1.4-2.1,2.7-4.3,3.9-6.4c0.5-2.1,0.9-4.3,1.3-6.4l0,0c0.4-2.1,2.4-3.5,4.5-3.1
			c2.1,0.4,3.5,2.4,3.1,4.5c0,0,0,0,0,0.1c-0.5,2.3-1,4.5-1.5,6.7c0,0.2-0.1,0.4-0.1,0.6c-0.4,1.6-0.8,3.2-1.2,4.8l-0.1,0.3
			c1.3-1.5,2.6-3,3.8-4.5c2.5-3.1,4.7-6.3,6.9-9.6l0,0c0.1-0.2,0.3-0.3,0.4-0.5c2.6-3.5,5.8-6.1,9.6-7c1.6-0.4,3-0.4,4.2-0.3
			c0.8-1.6,2.5-2.2,4-2c1.9,0.3,3.6,2.1,3.2,4.5l-0.6,3.7l-0.1,0.2c-0.9,5.8-1.9,11.5-3,17.2l1.7-2.6l6.4-9.8l4.7-7.1l15-78
			c0.4-2.1,2.4-3.5,4.5-3.1c2.1,0.4,3.5,2.4,3.1,4.5l-6.9,35.7l22.7-6.6l2.8-14.5c0.4-2.1,2.4-3.5,4.5-3.1c2.1,0.4,3.5,2.4,3.1,4.5
			l-2,10.7l73.8-21.4c2-0.6,4.2,0.6,4.8,2.6C425.8,180,424.6,182.1,422.6,182.7z M236.5,278.9C236.5,278.8,236.5,278.9,236.5,278.9
			L236.5,278.9C236.6,278.8,236.6,278.8,236.5,278.9L236.5,278.9C236.5,278.8,236.5,278.8,236.5,278.9z M236.6,278.8
			C236.6,278.9,236.5,278.9,236.6,278.8C236.3,279,236.5,278.9,236.6,278.8z M257.3,269.9L257.3,269.9
			C257.3,269.9,257.3,269.9,257.3,269.9z M276.1,260.1c1.6-3.1,3.2-6.2,4.8-9.8c-1.8,0.4-3.7,2-5.4,4.4c0,0.1-0.1,0.1-0.1,0.2
			c-0.6,0.8-1.1,1.7-1.6,2.7c-2.2,4.4-3.3,9.1-3.4,12c1-1.1,2.5-3.2,4.5-7.1C275.3,261.7,275.7,260.9,276.1,260.1z M264.6,327.5
			L264.6,327.5C264.5,327.6,264.5,327.6,264.6,327.5z M272.5,302.5c-0.7,1.3-1.5,2.7-2.1,4c-1.6,3.3-3,6.6-3.8,10.1
			c-0.4,1.7-0.7,3.5-0.9,5.2c-0.2,1.7-0.3,3.3-0.1,4.7c0.3-0.3,0.5-0.7,0.7-1.2c0.4-0.7,0.7-1.4,1-2.2c0.1-0.4,0.3-0.8,0.4-1.2
			l0.2-0.6l0.2-0.7l0.8-2.8l0.7-2.8C270.6,310.9,271.6,306.7,272.5,302.5z M336.6,207.6l-22.7,6.6l-6.3,32.7c0.4-0.5,0.7-1,1-1.4
			c5.9-8.1,8.5-10.5,11.2-10.5c1.3,0,2.6,0.6,3.4,1.7c2.1,2.8,0.7,9.6-0.3,13.4c-0.3,1.2-0.8,2.7-1.4,4.4c0.1-0.2,0.3-0.3,0.4-0.5
			c3.7-4.5,6.7-8.4,7.7-9.9L336.6,207.6z M150.5,370.6l1.6-8.5c-27.1-27.3-43.8-64.8-43.8-106.3c0-83.4,67.6-151,151-151
			c55.9,0,104.8,30.4,130.9,75.6l7.1-2.1c-7.1-12.6-15.8-24.1-26.1-34.4C356.7,129.4,339.8,118,321,110
			c-19.5-8.3-40.2-12.4-61.6-12.4s-42.1,4.2-61.6,12.4c-18.8,8-35.8,19.4-50.3,33.9s-25.9,31.4-33.9,50.3
			c-8.2,19.5-12.4,40.2-12.4,61.6s4.2,42.1,12.4,61.6c8,18.8,19.4,35.8,33.9,50.3C148.5,368.6,149.5,369.6,150.5,370.6z M404,191.7
			l-7,2c8.6,19,13.3,40,13.3,62.1c0,83.4-67.6,151-151,151c-35.8,0-68.7-12.5-94.5-33.3l-1.5,7.9c10.6,8.1,22.1,14.8,34.5,20.1
			c19.5,8.2,40.2,12.4,61.6,12.4s42.1-4.2,61.6-12.4c18.8-8,35.8-19.4,50.3-33.9c14.5-14.5,25.9-31.4,33.9-50.3
			c8.2-19.5,12.4-40.2,12.4-61.6s-4.2-42.1-12.4-61.6C404.8,193.4,404.4,192.5,404,191.7z M264.2,229.1c0.1,0.2,0.2,0.5,0.2,0.7
			c0,0.2,0.1,0.5,0.1,0.7c0,0.3,0,0.5-0.1,0.8c0,0.2-0.1,0.5-0.2,0.7c-0.1,0.2-0.2,0.5-0.4,0.7s-0.3,0.4-0.5,0.6
			c-0.7,0.7-1.7,1.1-2.7,1.1c-1,0-2-0.4-2.7-1.1c-0.7-0.7-1.1-1.7-1.1-2.7c0-0.3,0-0.5,0.1-0.7c0-0.2,0.1-0.5,0.2-0.7
			c0.1-0.2,0.2-0.5,0.4-0.7c0.1-0.2,0.3-0.4,0.5-0.6c0.2-0.2,0.4-0.3,0.6-0.5c0.2-0.1,0.4-0.3,0.7-0.4c0.2-0.1,0.5-0.2,0.7-0.2
			c0.5-0.1,1-0.1,1.5,0c0.2,0,0.5,0.1,0.7,0.2c0.2,0.1,0.5,0.2,0.7,0.4c0.2,0.1,0.4,0.3,0.6,0.5c0.2,0.2,0.3,0.4,0.5,0.6
			C264,228.6,264.1,228.8,264.2,229.1z M195.7,361.5l-1.2-1c-1,1.2-2.4,1.7-3.6,1.7c-1.9,0-4.3-1.6-4.3-4.7c0-2.8,2-4.7,4.4-4.7
			c1.4,0,2.4,0.5,3.3,1.4l1.2-1.1c-1-1.2-2.3-1.9-4.6-1.9c-3.5,0-6.1,2.8-6.1,6.4c0,3.9,3,6.4,6,6.4
			C193,363.8,194.8,362.8,195.7,361.5z M212.2,363.6l-4.8-12.3h-1.1l-4.7,12.3h1.8l1.5-4h3.9l1.5,4H212.2z M208.2,358.1h-2.8
			l1.3-3.5l0.1-0.3c0,0,0,0.2,0.1,0.3L208.2,358.1z M228.6,363.6v-12.3h-1.7v8.7c0,0.1,0,0.4,0,0.4l-0.2-0.3l-6.4-8.8h-1.4v12.3h1.7
			v-8.9c0-0.1,0-0.4,0-0.4s0.1,0.2,0.2,0.3l6.5,8.9L228.6,363.6L228.6,363.6z M245.9,363.6v-12.3h-1.7v8.7c0,0.1,0,0.4,0,0.4
			l-0.2-0.3l-6.4-8.8h-1.4v12.3h1.7v-8.9c0-0.1,0-0.4,0-0.4s0.1,0.2,0.2,0.3l6.5,8.9L245.9,363.6L245.9,363.6z M263.2,363.6
			l-4.8-12.3h-1.1l-4.7,12.3h1.8l1.5-4h3.9l1.5,4H263.2z M259.3,358.1h-2.8l1.3-3.5l0.1-0.3c0,0,0,0.2,0.1,0.3L259.3,358.1z
			 M277.5,360.3c0-1.5-1.1-2.6-2.1-2.9c0.8-0.5,1.4-1.4,1.4-2.8c0-1.9-1.5-3.2-3.6-3.2H270v12.3h3.7
			C276.4,363.6,277.5,361.8,277.5,360.3z M275,354.7c0,1-0.4,2.1-2.3,2.1h-1.1v-3.9h1.3C274.3,352.9,275,353.6,275,354.7z
			 M275.7,360.2c0,1.1-0.7,1.9-2.2,1.9h-1.8v-3.7h2C274.9,358.4,275.7,359.1,275.7,360.2z M286.2,363.6v-12.3h-1.7v12.3H286.2z
			 M300.6,360.4c0-2.1-1.5-3-2.9-3.6c-1.5-0.8-2.7-1.2-2.7-2.5c0-0.9,0.8-1.4,1.8-1.4c1,0,1.7,0.2,2.4,0.8l0.9-1.4
			c-1-0.7-2.1-1-3.3-1c-2.2,0-3.6,1.4-3.6,3.2c0,2.3,1.8,3.1,3.5,4c1.1,0.6,2.1,1.1,2.1,2.2c0,1.2-0.9,1.7-2.1,1.7
			c-0.8,0-1.9-0.3-2.6-0.9l-1,1.3c1.1,0.9,2.4,1.3,3.6,1.3C298.9,363.8,300.6,362.6,300.6,360.4z M324.2,361.5l-1.2-1
			c-1,1.2-2.4,1.7-3.6,1.7c-1.9,0-4.3-1.6-4.3-4.7c0-2.8,2-4.7,4.4-4.7c1.4,0,2.4,0.5,3.3,1.4l1.2-1.1c-1-1.2-2.3-1.9-4.6-1.9
			c-3.5,0-6.1,2.8-6.1,6.4c0,3.9,3,6.4,6,6.4C321.5,363.8,323.3,362.8,324.2,361.5z M342.8,357.5c0-3.6-2.6-6.4-6.4-6.4
			c-3.6,0-6.2,2.7-6.2,6.3c0,3.7,2.8,6.4,6.3,6.4C340,363.8,342.8,361.1,342.8,357.5z M341.1,357.4c0,3-2.1,4.8-4.5,4.8
			c-2.4,0-4.6-2-4.6-4.7c0-2.7,1.8-4.7,4.5-4.7C339.2,352.8,341.1,354.8,341.1,357.4z M349.7,363.6v-1.9h-1.8v1.9H349.7z"/>
	</g>
</g>
<g id="Isolation_Mode">
</g>
</svg>
